# xmcd CD database file
#
# Track frame offsets:
#	150
#	8637
#	32878
#	41400
#	67106
#	88069
#	95402
#	128230
#	140559
#	167452
#	178243
#	201857
#	235241
#
# Disc length: 3281 seconds
#
# Revision: 1
# Processed by: cddbd v1.5.1PL2 Copyright (c) Steve Scherf et al.
# Submitted via: CDex 1.51
#
DISCID=b10ccf0d
DTITLE=Sarah Vaughan - Live In Japan - [CD1]
DYEAR=1973
DGENRE=Jazz
TTITLE0=A Foggy Day In London Town
TTITLE1=Poor Butterfly
TTITLE2=The Lamp Is Low
TTITLE3='Round Midnight
TTITLE4=Willow Weep For Me
TTITLE5=There Will Never Be Another You
TTITLE6=Wave
TTITLE7=Someone In Love
TTITLE8=My Funny Valentine
TTITLE9=All Of Me
TTITLE10=Love Story (Where Do I Begin)
TTITLE11=Over The Rainbow
TTITLE12=I Could Write A Book
EXTD=YEAR: 1973
EXTT0=
EXTT1=
EXTT2=
EXTT3=
EXTT4=
EXTT5=
EXTT6=
EXTT7=
EXTT8=
EXTT9=
EXTT10=
EXTT11=
EXTT12=
PLAYORDER=
